<mxfile host="app.diagrams.net" modified="2020-06-03T12:19:15.854Z" agent="5.0 (Windows NT 6.1; Win64; x64) AppleWebKit/537.36 (KHTML, like Gecko) Chrome/79.0.3945.117 Safari/537.36" etag="CRWTVTe-lIRvJ3jm6Ftd" version="13.1.12" type="github">
  <diagram id="0-s6KxDbkXTGoL-HJNgs" name="Page-1">
    <mxGraphModel dx="1673" dy="1723" grid="1" gridSize="10" guides="1" tooltips="1" connect="1" arrows="1" fold="1" page="1" pageScale="1" pageWidth="1169" pageHeight="827" math="0" shadow="0">
      <root>
        <mxCell id="0" />
        <mxCell id="1" parent="0" />
        <mxCell id="MziXyrNM6n-wOrKZSjac-42" value="" style="rounded=0;whiteSpace=wrap;html=1;strokeColor=#314354;fontFamily=New Century Schoolbook;fontSize=20;fillColor=#808080;fontColor=#ffffff;" vertex="1" parent="1">
          <mxGeometry x="120" y="130" width="710" height="670" as="geometry" />
        </mxCell>
        <mxCell id="MziXyrNM6n-wOrKZSjac-40" value="Settlement" style="rounded=0;fontFamily=New Century Schoolbook;labelPosition=center;verticalLabelPosition=bottom;align=center;verticalAlign=top;labelBackgroundColor=#ffffff;spacingTop=0;spacingLeft=0;whiteSpace=wrap;html=1;labelBorderColor=none;spacing=-22;" vertex="1" parent="1">
          <mxGeometry x="480" y="420" width="220" height="290" as="geometry" />
        </mxCell>
        <mxCell id="MziXyrNM6n-wOrKZSjac-69" value="Accounting" style="rounded=1;whiteSpace=wrap;html=1;labelBackgroundColor=none;strokeColor=#000000;fillColor=#808080;fontFamily=New Century Schoolbook;fontSize=11;spacing=-22;labelPosition=center;verticalLabelPosition=bottom;align=center;verticalAlign=top;fontColor=#FFFFFF;fontStyle=1" vertex="1" parent="1">
          <mxGeometry x="600" y="440" width="80" height="240" as="geometry" />
        </mxCell>
        <mxCell id="MziXyrNM6n-wOrKZSjac-73" style="edgeStyle=orthogonalEdgeStyle;rounded=0;orthogonalLoop=1;jettySize=auto;html=1;exitX=1;exitY=0.75;exitDx=0;exitDy=0;entryX=0;entryY=0.75;entryDx=0;entryDy=0;startArrow=none;startFill=0;endArrow=classic;endFill=1;fontFamily=New Century Schoolbook;fontSize=11;fontColor=#FFFFFF;" edge="1" parent="1" source="MziXyrNM6n-wOrKZSjac-68" target="MziXyrNM6n-wOrKZSjac-69">
          <mxGeometry relative="1" as="geometry" />
        </mxCell>
        <mxCell id="MziXyrNM6n-wOrKZSjac-68" value="&lt;font style=&quot;font-size: 11px&quot;&gt;Payments&lt;/font&gt;" style="rounded=1;whiteSpace=wrap;html=1;labelBackgroundColor=none;strokeColor=#000000;fillColor=#808080;fontFamily=New Century Schoolbook;fontSize=11;labelPosition=center;verticalLabelPosition=bottom;align=center;verticalAlign=top;spacing=-22;fontColor=#FFFFFF;fontStyle=1" vertex="1" parent="1">
          <mxGeometry x="500" y="440" width="80" height="240" as="geometry" />
        </mxCell>
        <mxCell id="MziXyrNM6n-wOrKZSjac-74" style="edgeStyle=orthogonalEdgeStyle;rounded=0;orthogonalLoop=1;jettySize=auto;html=1;exitX=0.75;exitY=1;exitDx=0;exitDy=0;entryX=0.909;entryY=0.483;entryDx=0;entryDy=0;entryPerimeter=0;startArrow=none;startFill=0;endArrow=classic;endFill=1;fontFamily=New Century Schoolbook;fontSize=11;fontColor=#FFFFFF;" edge="1" parent="1" source="MziXyrNM6n-wOrKZSjac-1" target="MziXyrNM6n-wOrKZSjac-40">
          <mxGeometry relative="1" as="geometry">
            <Array as="points">
              <mxPoint x="690" y="400" />
              <mxPoint x="690" y="560" />
            </Array>
          </mxGeometry>
        </mxCell>
        <mxCell id="MziXyrNM6n-wOrKZSjac-1" value="Calypso" style="rounded=0;whiteSpace=wrap;html=1;fontFamily=New Century Schoolbook;" vertex="1" parent="1">
          <mxGeometry x="160" y="150" width="640" height="250" as="geometry" />
        </mxCell>
        <mxCell id="MziXyrNM6n-wOrKZSjac-2" value="Pre-Settlement" style="rounded=0;whiteSpace=wrap;html=1;fontFamily=New Century Schoolbook;labelPosition=center;verticalLabelPosition=bottom;align=center;verticalAlign=top;labelBackgroundColor=#ffffff;spacing=-22;" vertex="1" parent="1">
          <mxGeometry x="160" y="420" width="310" height="290" as="geometry" />
        </mxCell>
        <mxCell id="MziXyrNM6n-wOrKZSjac-3" value="Front Office" style="rounded=0;whiteSpace=wrap;html=1;fontFamily=New Century Schoolbook;labelPosition=center;verticalLabelPosition=top;align=center;verticalAlign=bottom;" vertex="1" parent="1">
          <mxGeometry x="10" y="150" width="80" height="250" as="geometry" />
        </mxCell>
        <mxCell id="MziXyrNM6n-wOrKZSjac-47" value="" style="edgeStyle=orthogonalEdgeStyle;rounded=0;orthogonalLoop=1;jettySize=auto;html=1;fontFamily=New Century Schoolbook;fontSize=20;" edge="1" parent="1" source="MziXyrNM6n-wOrKZSjac-5" target="MziXyrNM6n-wOrKZSjac-7">
          <mxGeometry relative="1" as="geometry">
            <mxPoint x="215" y="600" as="targetPoint" />
          </mxGeometry>
        </mxCell>
        <mxCell id="MziXyrNM6n-wOrKZSjac-55" style="edgeStyle=orthogonalEdgeStyle;rounded=0;orthogonalLoop=1;jettySize=auto;html=1;exitX=0.75;exitY=1;exitDx=0;exitDy=0;entryX=0;entryY=0.5;entryDx=0;entryDy=0;startArrow=none;startFill=0;endArrow=classic;endFill=1;fontFamily=New Century Schoolbook;fontSize=20;" edge="1" parent="1" source="MziXyrNM6n-wOrKZSjac-5" target="MziXyrNM6n-wOrKZSjac-26">
          <mxGeometry relative="1" as="geometry" />
        </mxCell>
        <mxCell id="MziXyrNM6n-wOrKZSjac-5" value="TraCE" style="rounded=0;whiteSpace=wrap;html=1;fontFamily=New Century Schoolbook;" vertex="1" parent="1">
          <mxGeometry x="180" y="440" width="70" height="40" as="geometry" />
        </mxCell>
        <mxCell id="MziXyrNM6n-wOrKZSjac-49" value="" style="edgeStyle=orthogonalEdgeStyle;rounded=0;orthogonalLoop=1;jettySize=auto;html=1;fontFamily=New Century Schoolbook;fontSize=20;entryX=0.75;entryY=0;entryDx=0;entryDy=0;startArrow=classic;startFill=1;endArrow=none;endFill=0;" edge="1" parent="1" source="MziXyrNM6n-wOrKZSjac-6" target="MziXyrNM6n-wOrKZSjac-7">
          <mxGeometry relative="1" as="geometry">
            <mxPoint x="232.5" y="600" as="targetPoint" />
          </mxGeometry>
        </mxCell>
        <mxCell id="MziXyrNM6n-wOrKZSjac-51" value="" style="edgeStyle=orthogonalEdgeStyle;rounded=0;orthogonalLoop=1;jettySize=auto;html=1;startArrow=classic;startFill=1;endArrow=classic;endFill=1;fontFamily=New Century Schoolbook;fontSize=20;dashed=1;dashPattern=1 1;" edge="1" parent="1" source="MziXyrNM6n-wOrKZSjac-6">
          <mxGeometry relative="1" as="geometry">
            <mxPoint x="315" y="640" as="targetPoint" />
          </mxGeometry>
        </mxCell>
        <mxCell id="MziXyrNM6n-wOrKZSjac-6" value="TRAM" style="rounded=0;whiteSpace=wrap;html=1;fontFamily=New Century Schoolbook;" vertex="1" parent="1">
          <mxGeometry x="280" y="560" width="70" height="40" as="geometry" />
        </mxCell>
        <mxCell id="MziXyrNM6n-wOrKZSjac-7" value="LiveConfirm" style="rounded=0;whiteSpace=wrap;html=1;fontFamily=New Century Schoolbook;" vertex="1" parent="1">
          <mxGeometry x="180" y="640" width="70" height="40" as="geometry" />
        </mxCell>
        <mxCell id="MziXyrNM6n-wOrKZSjac-8" value="Confirmation Generation" style="rounded=1;whiteSpace=wrap;html=1;fontFamily=New Century Schoolbook;" vertex="1" parent="1">
          <mxGeometry x="170" y="740" width="90" height="60" as="geometry" />
        </mxCell>
        <mxCell id="MziXyrNM6n-wOrKZSjac-9" value="Confirmation Generation" style="rounded=1;whiteSpace=wrap;html=1;fontFamily=New Century Schoolbook;" vertex="1" parent="1">
          <mxGeometry x="270" y="740" width="90" height="60" as="geometry" />
        </mxCell>
        <mxCell id="MziXyrNM6n-wOrKZSjac-10" value="Confirmation Generation" style="rounded=1;whiteSpace=wrap;html=1;fontFamily=New Century Schoolbook;" vertex="1" parent="1">
          <mxGeometry x="370" y="740" width="90" height="60" as="geometry" />
        </mxCell>
        <mxCell id="MziXyrNM6n-wOrKZSjac-61" style="edgeStyle=orthogonalEdgeStyle;rounded=0;orthogonalLoop=1;jettySize=auto;html=1;exitX=1;exitY=0.5;exitDx=0;exitDy=0;entryX=0.25;entryY=1;entryDx=0;entryDy=0;startArrow=none;startFill=0;endArrow=classic;endFill=1;fontFamily=New Century Schoolbook;fontSize=20;" edge="1" parent="1" source="MziXyrNM6n-wOrKZSjac-11" target="MziXyrNM6n-wOrKZSjac-23">
          <mxGeometry relative="1" as="geometry" />
        </mxCell>
        <mxCell id="MziXyrNM6n-wOrKZSjac-11" value="Murex Equity" style="rounded=0;whiteSpace=wrap;html=1;fontFamily=New Century Schoolbook;" vertex="1" parent="1">
          <mxGeometry x="25" y="180" width="50" height="30" as="geometry" />
        </mxCell>
        <mxCell id="MziXyrNM6n-wOrKZSjac-62" style="edgeStyle=orthogonalEdgeStyle;rounded=0;orthogonalLoop=1;jettySize=auto;html=1;exitX=1;exitY=0.5;exitDx=0;exitDy=0;entryX=0.5;entryY=1;entryDx=0;entryDy=0;startArrow=none;startFill=0;endArrow=classic;endFill=1;fontFamily=New Century Schoolbook;fontSize=20;" edge="1" parent="1" source="MziXyrNM6n-wOrKZSjac-12" target="MziXyrNM6n-wOrKZSjac-22">
          <mxGeometry relative="1" as="geometry">
            <Array as="points">
              <mxPoint x="100" y="235" />
              <mxPoint x="100" y="215" />
            </Array>
          </mxGeometry>
        </mxCell>
        <mxCell id="MziXyrNM6n-wOrKZSjac-12" value="Summit" style="rounded=0;whiteSpace=wrap;html=1;fontFamily=New Century Schoolbook;" vertex="1" parent="1">
          <mxGeometry x="25" y="220" width="50" height="30" as="geometry" />
        </mxCell>
        <mxCell id="MziXyrNM6n-wOrKZSjac-13" value="Reference Data" style="rounded=0;whiteSpace=wrap;html=1;fontFamily=New Century Schoolbook;labelPosition=center;verticalLabelPosition=top;align=center;verticalAlign=bottom;" vertex="1" parent="1">
          <mxGeometry x="190" y="-27.5" width="90" height="60" as="geometry" />
        </mxCell>
        <mxCell id="MziXyrNM6n-wOrKZSjac-16" value="Cash Management" style="rounded=0;whiteSpace=wrap;html=1;fontFamily=New Century Schoolbook;labelPosition=center;verticalLabelPosition=top;align=center;verticalAlign=bottom;" vertex="1" parent="1">
          <mxGeometry x="295" y="60" width="90" height="60" as="geometry" />
        </mxCell>
        <mxCell id="MziXyrNM6n-wOrKZSjac-17" value="Reporting (Finance/Risk)" style="rounded=0;whiteSpace=wrap;html=1;fontFamily=New Century Schoolbook;labelPosition=center;verticalLabelPosition=top;align=center;verticalAlign=bottom;" vertex="1" parent="1">
          <mxGeometry x="625" y="-30" width="140" height="60" as="geometry" />
        </mxCell>
        <mxCell id="MziXyrNM6n-wOrKZSjac-18" value="Reconciliation" style="rounded=0;whiteSpace=wrap;html=1;fontFamily=New Century Schoolbook;labelPosition=center;verticalLabelPosition=top;align=center;verticalAlign=bottom;" vertex="1" parent="1">
          <mxGeometry x="660" y="57.5" width="150" height="60" as="geometry" />
        </mxCell>
        <mxCell id="MziXyrNM6n-wOrKZSjac-19" value="Corona" style="rounded=0;whiteSpace=wrap;html=1;fontSize=10;fontFamily=New Century Schoolbook;" vertex="1" parent="1">
          <mxGeometry x="670" y="70" width="60" height="30" as="geometry" />
        </mxCell>
        <mxCell id="MziXyrNM6n-wOrKZSjac-20" value="Easymatch" style="rounded=0;whiteSpace=wrap;html=1;fontSize=10;fontFamily=New Century Schoolbook;" vertex="1" parent="1">
          <mxGeometry x="740" y="70" width="60" height="30" as="geometry" />
        </mxCell>
        <mxCell id="MziXyrNM6n-wOrKZSjac-21" value="" style="shape=cylinder;whiteSpace=wrap;html=1;boundedLbl=1;backgroundOutline=1;fontFamily=New Century Schoolbook;fontSize=10;fillColor=#eeeeee;strokeColor=#36393d;" vertex="1" parent="1">
          <mxGeometry x="175" y="170" width="245" height="200" as="geometry" />
        </mxCell>
        <mxCell id="MziXyrNM6n-wOrKZSjac-82" style="rounded=0;orthogonalLoop=1;jettySize=auto;html=1;exitX=0.5;exitY=0;exitDx=0;exitDy=0;startArrow=none;startFill=0;endArrow=classic;endFill=1;fontFamily=New Century Schoolbook;fontSize=11;fontColor=#000000;edgeStyle=elbowEdgeStyle;" edge="1" parent="1" source="MziXyrNM6n-wOrKZSjac-22">
          <mxGeometry relative="1" as="geometry">
            <mxPoint x="160" y="213" as="targetPoint" />
            <Array as="points">
              <mxPoint x="145" y="213" />
              <mxPoint x="152" y="213" />
            </Array>
          </mxGeometry>
        </mxCell>
        <mxCell id="MziXyrNM6n-wOrKZSjac-22" value="TE" style="rounded=0;whiteSpace=wrap;html=1;fontFamily=New Century Schoolbook;fontSize=10;rotation=90;" vertex="1" parent="1">
          <mxGeometry x="100" y="200" width="60" height="30" as="geometry" />
        </mxCell>
        <mxCell id="MziXyrNM6n-wOrKZSjac-83" style="edgeStyle=elbowEdgeStyle;rounded=0;orthogonalLoop=1;jettySize=auto;html=1;exitX=0.5;exitY=0;exitDx=0;exitDy=0;entryX=0.001;entryY=0.541;entryDx=0;entryDy=0;entryPerimeter=0;startArrow=none;startFill=0;endArrow=classic;endFill=1;fontFamily=New Century Schoolbook;fontSize=11;fontColor=#000000;" edge="1" parent="1" source="MziXyrNM6n-wOrKZSjac-23" target="MziXyrNM6n-wOrKZSjac-1">
          <mxGeometry relative="1" as="geometry" />
        </mxCell>
        <mxCell id="MziXyrNM6n-wOrKZSjac-23" value="DEALBUS" style="rounded=0;whiteSpace=wrap;html=1;fontFamily=New Century Schoolbook;fontSize=10;rotation=90;" vertex="1" parent="1">
          <mxGeometry x="100" y="270" width="60" height="30" as="geometry" />
        </mxCell>
        <mxCell id="MziXyrNM6n-wOrKZSjac-24" value="" style="endArrow=classic;html=1;fontFamily=New Century Schoolbook;fontSize=10;exitX=0.079;exitY=0.999;exitDx=0;exitDy=0;exitPerimeter=0;entryX=0.75;entryY=0;entryDx=0;entryDy=0;edgeStyle=orthogonalEdgeStyle;rounded=0;" edge="1" parent="1" source="MziXyrNM6n-wOrKZSjac-1" target="MziXyrNM6n-wOrKZSjac-5">
          <mxGeometry width="50" height="50" relative="1" as="geometry">
            <mxPoint x="430" y="350" as="sourcePoint" />
            <mxPoint x="480" y="300" as="targetPoint" />
            <Array as="points">
              <mxPoint x="211" y="410" />
              <mxPoint x="233" y="410" />
            </Array>
          </mxGeometry>
        </mxCell>
        <mxCell id="MziXyrNM6n-wOrKZSjac-25" value="" style="endArrow=classic;html=1;fontFamily=New Century Schoolbook;fontSize=10;exitX=0.25;exitY=0;exitDx=0;exitDy=0;entryX=0.041;entryY=1;entryDx=0;entryDy=0;entryPerimeter=0;rounded=0;edgeStyle=orthogonalEdgeStyle;" edge="1" parent="1" source="MziXyrNM6n-wOrKZSjac-5" target="MziXyrNM6n-wOrKZSjac-1">
          <mxGeometry width="50" height="50" relative="1" as="geometry">
            <mxPoint x="200.17999999999995" y="400.0000000000001" as="sourcePoint" />
            <mxPoint x="160" y="410" as="targetPoint" />
            <Array as="points">
              <mxPoint x="186" y="440" />
              <mxPoint x="186" y="420" />
            </Array>
          </mxGeometry>
        </mxCell>
        <mxCell id="MziXyrNM6n-wOrKZSjac-54" value="" style="edgeStyle=orthogonalEdgeStyle;rounded=0;orthogonalLoop=1;jettySize=auto;html=1;startArrow=none;startFill=0;endArrow=classic;endFill=1;fontFamily=New Century Schoolbook;fontSize=20;" edge="1" parent="1" source="MziXyrNM6n-wOrKZSjac-26" target="MziXyrNM6n-wOrKZSjac-6">
          <mxGeometry relative="1" as="geometry" />
        </mxCell>
        <mxCell id="MziXyrNM6n-wOrKZSjac-72" style="edgeStyle=orthogonalEdgeStyle;rounded=0;orthogonalLoop=1;jettySize=auto;html=1;exitX=1;exitY=0.5;exitDx=0;exitDy=0;startArrow=none;startFill=0;endArrow=classic;endFill=1;fontFamily=New Century Schoolbook;fontSize=11;fontColor=#FFFFFF;" edge="1" parent="1" source="MziXyrNM6n-wOrKZSjac-26">
          <mxGeometry relative="1" as="geometry">
            <mxPoint x="499" y="511" as="targetPoint" />
            <Array as="points">
              <mxPoint x="335" y="511" />
            </Array>
          </mxGeometry>
        </mxCell>
        <mxCell id="MziXyrNM6n-wOrKZSjac-26" value="&lt;p style=&quot;line-height: 100%&quot;&gt;[...]&lt;/p&gt;" style="text;html=1;strokeColor=#000000;fillColor=none;align=center;verticalAlign=middle;whiteSpace=wrap;rounded=0;fontFamily=New Century Schoolbook;fontSize=20;spacing=0;labelBorderColor=none;spacingTop=0;labelPosition=center;verticalLabelPosition=middle;spacingBottom=8;" vertex="1" parent="1">
          <mxGeometry x="295" y="490" width="40" height="40" as="geometry" />
        </mxCell>
        <mxCell id="MziXyrNM6n-wOrKZSjac-63" style="edgeStyle=orthogonalEdgeStyle;rounded=0;orthogonalLoop=1;jettySize=auto;html=1;exitX=0.5;exitY=0;exitDx=0;exitDy=0;entryX=0.5;entryY=1;entryDx=0;entryDy=0;startArrow=none;startFill=0;endArrow=classic;endFill=1;fontFamily=New Century Schoolbook;fontSize=20;" edge="1" parent="1" source="MziXyrNM6n-wOrKZSjac-29" target="MziXyrNM6n-wOrKZSjac-23">
          <mxGeometry relative="1" as="geometry" />
        </mxCell>
        <mxCell id="MziXyrNM6n-wOrKZSjac-29" value="&lt;p style=&quot;line-height: 100%&quot;&gt;[...]&lt;/p&gt;" style="text;html=1;strokeColor=#000000;fillColor=none;align=center;verticalAlign=middle;whiteSpace=wrap;rounded=0;fontFamily=New Century Schoolbook;fontSize=20;spacing=0;labelBorderColor=none;spacingTop=0;labelPosition=center;verticalLabelPosition=middle;spacingBottom=8;" vertex="1" parent="1">
          <mxGeometry x="30" y="310" width="40" height="40" as="geometry" />
        </mxCell>
        <mxCell id="MziXyrNM6n-wOrKZSjac-30" value="&lt;p style=&quot;line-height: 100%&quot;&gt;[...]&lt;/p&gt;" style="text;html=1;strokeColor=#000000;fillColor=none;align=center;verticalAlign=middle;whiteSpace=wrap;rounded=0;fontFamily=New Century Schoolbook;fontSize=20;spacing=0;labelBorderColor=none;spacingTop=0;labelPosition=center;verticalLabelPosition=middle;spacingBottom=8;" vertex="1" parent="1">
          <mxGeometry x="215" y="-17.5" width="40" height="40" as="geometry" />
        </mxCell>
        <mxCell id="MziXyrNM6n-wOrKZSjac-32" value="Tax" style="rounded=0;whiteSpace=wrap;html=1;fontFamily=New Century Schoolbook;labelPosition=center;verticalLabelPosition=top;align=center;verticalAlign=bottom;" vertex="1" parent="1">
          <mxGeometry x="190" y="60" width="90" height="60" as="geometry" />
        </mxCell>
        <mxCell id="MziXyrNM6n-wOrKZSjac-39" value="" style="edgeStyle=orthogonalEdgeStyle;rounded=0;orthogonalLoop=1;jettySize=auto;html=1;fontFamily=New Century Schoolbook;fontSize=20;startArrow=classic;startFill=1;endArrow=none;endFill=0;" edge="1" parent="1" source="MziXyrNM6n-wOrKZSjac-33" target="MziXyrNM6n-wOrKZSjac-1">
          <mxGeometry relative="1" as="geometry">
            <Array as="points">
              <mxPoint x="420" y="88" />
            </Array>
          </mxGeometry>
        </mxCell>
        <mxCell id="MziXyrNM6n-wOrKZSjac-33" value="Regulatory Reporting" style="rounded=0;whiteSpace=wrap;html=1;fontFamily=New Century Schoolbook;labelPosition=center;verticalLabelPosition=top;align=center;verticalAlign=bottom;" vertex="1" parent="1">
          <mxGeometry x="420" y="60" width="90" height="60" as="geometry" />
        </mxCell>
        <mxCell id="MziXyrNM6n-wOrKZSjac-35" value="&lt;p style=&quot;line-height: 100%&quot;&gt;[...]&lt;/p&gt;" style="text;html=1;strokeColor=#000000;fillColor=none;align=center;verticalAlign=middle;whiteSpace=wrap;rounded=0;fontFamily=New Century Schoolbook;fontSize=20;spacing=0;labelBorderColor=none;spacingTop=0;labelPosition=center;verticalLabelPosition=middle;spacingBottom=8;" vertex="1" parent="1">
          <mxGeometry x="215" y="70" width="40" height="40" as="geometry" />
        </mxCell>
        <mxCell id="MziXyrNM6n-wOrKZSjac-36" value="&lt;p style=&quot;line-height: 100%&quot;&gt;[...]&lt;/p&gt;" style="text;html=1;strokeColor=#000000;fillColor=none;align=center;verticalAlign=middle;whiteSpace=wrap;rounded=0;fontFamily=New Century Schoolbook;fontSize=20;spacing=0;labelBorderColor=none;spacingTop=0;labelPosition=center;verticalLabelPosition=middle;spacingBottom=8;" vertex="1" parent="1">
          <mxGeometry x="320" y="70" width="40" height="40" as="geometry" />
        </mxCell>
        <mxCell id="MziXyrNM6n-wOrKZSjac-37" value="&lt;p style=&quot;line-height: 100%&quot;&gt;[...]&lt;/p&gt;" style="text;html=1;strokeColor=#000000;fillColor=none;align=center;verticalAlign=middle;whiteSpace=wrap;rounded=0;fontFamily=New Century Schoolbook;fontSize=20;spacing=0;labelBorderColor=none;spacingTop=0;labelPosition=center;verticalLabelPosition=middle;spacingBottom=8;" vertex="1" parent="1">
          <mxGeometry x="445" y="70" width="40" height="40" as="geometry" />
        </mxCell>
        <mxCell id="MziXyrNM6n-wOrKZSjac-38" value="&lt;p style=&quot;line-height: 100%&quot;&gt;[...]&lt;/p&gt;" style="text;html=1;strokeColor=#000000;fillColor=none;align=center;verticalAlign=middle;whiteSpace=wrap;rounded=0;fontFamily=New Century Schoolbook;fontSize=20;spacing=0;labelBorderColor=none;spacingTop=0;labelPosition=center;verticalLabelPosition=middle;spacingBottom=8;" vertex="1" parent="1">
          <mxGeometry x="675" y="-17.5" width="40" height="40" as="geometry" />
        </mxCell>
        <mxCell id="MziXyrNM6n-wOrKZSjac-75" value="" style="edgeStyle=orthogonalEdgeStyle;rounded=0;orthogonalLoop=1;jettySize=auto;html=1;startArrow=none;startFill=0;endArrow=classic;endFill=1;fontFamily=New Century Schoolbook;fontSize=11;fontColor=#FFFFFF;" edge="1" parent="1" source="MziXyrNM6n-wOrKZSjac-41" target="MziXyrNM6n-wOrKZSjac-1">
          <mxGeometry relative="1" as="geometry">
            <Array as="points">
              <mxPoint x="755" y="400" />
            </Array>
          </mxGeometry>
        </mxCell>
        <mxCell id="MziXyrNM6n-wOrKZSjac-41" value="Post-Settlement" style="rounded=0;fontFamily=New Century Schoolbook;labelPosition=center;verticalLabelPosition=bottom;align=center;verticalAlign=top;labelBackgroundColor=#ffffff;spacingTop=0;spacingLeft=0;whiteSpace=wrap;html=1;labelBorderColor=none;spacing=-22;" vertex="1" parent="1">
          <mxGeometry x="710" y="420" width="90" height="290" as="geometry" />
        </mxCell>
        <mxCell id="MziXyrNM6n-wOrKZSjac-43" value="Delivery" style="rounded=1;whiteSpace=wrap;html=1;fontFamily=New Century Schoolbook;" vertex="1" parent="1">
          <mxGeometry x="495" y="740" width="90" height="60" as="geometry" />
        </mxCell>
        <mxCell id="MziXyrNM6n-wOrKZSjac-44" value="Posting" style="rounded=1;whiteSpace=wrap;html=1;fontFamily=New Century Schoolbook;" vertex="1" parent="1">
          <mxGeometry x="595" y="740" width="90" height="60" as="geometry" />
        </mxCell>
        <mxCell id="MziXyrNM6n-wOrKZSjac-45" value="&lt;p style=&quot;line-height: 100%&quot;&gt;[...]&lt;/p&gt;" style="text;html=1;strokeColor=#000000;fillColor=none;align=center;verticalAlign=middle;whiteSpace=wrap;rounded=0;fontFamily=New Century Schoolbook;fontSize=20;spacing=0;labelBorderColor=none;spacingTop=0;labelPosition=center;verticalLabelPosition=middle;spacingBottom=8;" vertex="1" parent="1">
          <mxGeometry x="295" y="640" width="40" height="40" as="geometry" />
        </mxCell>
        <mxCell id="MziXyrNM6n-wOrKZSjac-57" style="edgeStyle=orthogonalEdgeStyle;rounded=0;orthogonalLoop=1;jettySize=auto;html=1;exitX=0;exitY=1;exitDx=0;exitDy=0;entryX=0.012;entryY=0.597;entryDx=0;entryDy=0;entryPerimeter=0;startArrow=none;startFill=0;endArrow=classic;endFill=1;fontFamily=New Century Schoolbook;fontSize=20;" edge="1" parent="1">
          <mxGeometry relative="1" as="geometry">
            <mxPoint x="160" y="400" as="sourcePoint" />
            <mxPoint x="180.84000000000015" y="655.8199999999999" as="targetPoint" />
            <Array as="points">
              <mxPoint x="181" y="400" />
              <mxPoint x="181" y="410" />
              <mxPoint x="150" y="410" />
              <mxPoint x="150" y="656" />
            </Array>
          </mxGeometry>
        </mxCell>
        <mxCell id="MziXyrNM6n-wOrKZSjac-58" value="&lt;p style=&quot;line-height: 100%&quot;&gt;[...]&lt;/p&gt;" style="text;html=1;strokeColor=#000000;fillColor=none;align=center;verticalAlign=middle;whiteSpace=wrap;rounded=0;fontFamily=New Century Schoolbook;fontSize=20;spacing=0;labelBorderColor=none;spacingTop=0;labelPosition=center;verticalLabelPosition=middle;spacingBottom=8;" vertex="1" parent="1">
          <mxGeometry x="735" y="545" width="40" height="40" as="geometry" />
        </mxCell>
        <mxCell id="MziXyrNM6n-wOrKZSjac-70" value="" style="rounded=0;whiteSpace=wrap;html=1;labelBackgroundColor=none;strokeColor=none;fillColor=#FFFFFF;fontFamily=New Century Schoolbook;fontSize=11;fontColor=#FFFFFF;" vertex="1" parent="1">
          <mxGeometry x="510" y="535" width="60" height="60" as="geometry" />
        </mxCell>
        <mxCell id="MziXyrNM6n-wOrKZSjac-59" value="&lt;p style=&quot;line-height: 100%&quot;&gt;[...]&lt;/p&gt;" style="text;html=1;strokeColor=#000000;fillColor=none;align=center;verticalAlign=middle;whiteSpace=wrap;rounded=0;fontFamily=New Century Schoolbook;fontSize=20;spacing=0;labelBorderColor=none;spacingTop=0;labelPosition=center;verticalLabelPosition=middle;spacingBottom=8;labelBackgroundColor=none;" vertex="1" parent="1">
          <mxGeometry x="520" y="545" width="40" height="40" as="geometry" />
        </mxCell>
        <mxCell id="MziXyrNM6n-wOrKZSjac-71" value="" style="rounded=0;whiteSpace=wrap;html=1;labelBackgroundColor=none;strokeColor=none;fillColor=#FFFFFF;fontFamily=New Century Schoolbook;fontSize=11;fontColor=#FFFFFF;" vertex="1" parent="1">
          <mxGeometry x="610" y="535" width="60" height="60" as="geometry" />
        </mxCell>
        <mxCell id="MziXyrNM6n-wOrKZSjac-60" value="&lt;p style=&quot;line-height: 100%&quot;&gt;[...]&lt;/p&gt;" style="text;html=1;strokeColor=#000000;fillColor=none;align=center;verticalAlign=middle;whiteSpace=wrap;rounded=0;fontFamily=New Century Schoolbook;fontSize=20;spacing=0;labelBorderColor=none;spacingTop=0;labelPosition=center;verticalLabelPosition=middle;spacingBottom=8;labelBackgroundColor=none;" vertex="1" parent="1">
          <mxGeometry x="620" y="545" width="40" height="40" as="geometry" />
        </mxCell>
        <mxCell id="MziXyrNM6n-wOrKZSjac-87" style="edgeStyle=elbowEdgeStyle;rounded=0;orthogonalLoop=1;jettySize=auto;html=1;exitX=1;exitY=0.5;exitDx=0;exitDy=0;entryX=0;entryY=0.5;entryDx=0;entryDy=0;startArrow=none;startFill=0;endArrow=classic;endFill=1;fontFamily=New Century Schoolbook;fontSize=11;fontColor=#000000;" edge="1" parent="1" source="MziXyrNM6n-wOrKZSjac-79" target="MziXyrNM6n-wOrKZSjac-80">
          <mxGeometry relative="1" as="geometry" />
        </mxCell>
        <mxCell id="MziXyrNM6n-wOrKZSjac-79" value="Staging&lt;br&gt;Area" style="rounded=0;whiteSpace=wrap;html=1;labelBackgroundColor=none;strokeColor=#000000;fillColor=#FFFFFF;fontFamily=New Century Schoolbook;fontSize=11;fontColor=#000000;" vertex="1" parent="1">
          <mxGeometry x="197.5" y="250" width="52.5" height="100" as="geometry" />
        </mxCell>
        <mxCell id="MziXyrNM6n-wOrKZSjac-80" value="Calypso&lt;br&gt;Tables" style="rounded=0;whiteSpace=wrap;html=1;labelBackgroundColor=none;strokeColor=#000000;fillColor=#FFFFFF;fontFamily=New Century Schoolbook;fontSize=11;fontColor=#000000;" vertex="1" parent="1">
          <mxGeometry x="260" y="250" width="52.5" height="100" as="geometry" />
        </mxCell>
        <mxCell id="MziXyrNM6n-wOrKZSjac-86" style="edgeStyle=elbowEdgeStyle;rounded=0;orthogonalLoop=1;jettySize=auto;html=1;exitX=0.5;exitY=0;exitDx=0;exitDy=0;entryX=0;entryY=0.25;entryDx=0;entryDy=0;startArrow=none;startFill=0;endArrow=classic;endFill=1;fontFamily=New Century Schoolbook;fontSize=11;fontColor=#000000;" edge="1" parent="1" target="MziXyrNM6n-wOrKZSjac-79">
          <mxGeometry relative="1" as="geometry">
            <mxPoint x="160" y="274.87" as="sourcePoint" />
            <mxPoint x="175.64" y="275.12" as="targetPoint" />
            <Array as="points">
              <mxPoint x="160" y="275" />
            </Array>
          </mxGeometry>
        </mxCell>
      </root>
    </mxGraphModel>
  </diagram>
</mxfile>
